<!DOCTYPE svg PUBLIC "-//W3C//DTD SVG 1.1//EN" "http://www.w3.org/Graphics/SVG/1.1/DTD/svg11.dtd">
<!-- Uploaded to: SVG Repo, www.svgrepo.com, Transformed by: SVG Repo Mixer Tools -->
<svg height="800px" width="800px" version="1.1" id="_x32_" xmlns="http://www.w3.org/2000/svg" xmlns:xlink="http://www.w3.org/1999/xlink" viewBox="0 0 512 512" xml:space="preserve" fill="#ffffff" stroke="#ffffff">
<g id="SVGRepo_bgCarrier" stroke-width="0"/>
<g id="SVGRepo_tracerCarrier" stroke-linecap="round" stroke-linejoin="round"/>
<g id="SVGRepo_iconCarrier"> <style type="text/css"> .st0{fill:#ffffff;} </style> <g> <path class="st0" d="M165.013,288.946h75.034c6.953,0,12.609,5.656,12.609,12.608v26.424c0,7.065,3.659,9.585,7.082,9.585 c2.106,0,4.451-0.936,6.78-2.702l90.964-69.014c3.416-2.589,5.297-6.087,5.297-9.844c0-3.762-1.881-7.259-5.297-9.849 l-90.964-69.014c-2.329-1.766-4.674-2.702-6.78-2.702c-3.424,0-7.082,2.519-7.082,9.584v26.425c0,6.952-5.656,12.608-12.609,12.608 h-75.034c-8.707,0-15.79,7.085-15.79,15.788v34.313C149.223,281.862,156.305,288.946,165.013,288.946z"/> <path class="st0" d="M256,0C114.842,0,0.002,114.84,0.002,256S114.842,512,256,512c141.158,0,255.998-114.84,255.998-256 S397.158,0,256,0z M256,66.785c104.334,0,189.216,84.879,189.216,189.215S360.334,445.215,256,445.215S66.783,360.336,66.783,256 S151.667,66.785,256,66.785z"/> </g> </g>
</svg>